HIERARCHY
ROOT Hips
{
	OFFSET 0.000000 0.000000 0.000000
	CHANNELS 6 Xposition Yposition Zposition Zrotation Yrotation Xrotation 
	JOINT LHipJoint
	{
		OFFSET 0.000000 0.000000 0.000000
		CHANNELS 3 Zrotation Yrotation Xrotation
		JOINT LeftUpLeg
		{
			OFFSET 1.363060 -1.794630 0.839290
			CHANNELS 3 Zrotation Yrotation Xrotation
			JOINT LeftLeg
			{
				OFFSET 2.448110 -6.726130 0.000000
				CHANNELS 3 Zrotation Yrotation Xrotation
				JOINT LeftFoot
				{
					OFFSET 2.562200 -7.039590 0.000000
					CHANNELS 3 Zrotation Yrotation Xrotation
					JOINT LeftToeBase
					{
						OFFSET 0.157640 -0.433110 2.322550
						CHANNELS 3 Zrotation Yrotation Xrotation
						End Site
						{
							OFFSET 0.000000 0.000000 0.000000
						}
					}
				}
			}
		}
	}
	JOINT RHipJoint
	{
		OFFSET 0.000000 0.000000 0.000000
		CHANNELS 3 Zrotation Yrotation Xrotation
		JOINT RightUpLeg
		{
			OFFSET -1.305520 -1.794630 0.839290
			CHANNELS 3 Zrotation Yrotation Xrotation
			JOINT RightLeg
			{
				OFFSET -2.542530 -6.985550 0.000000
				CHANNELS 3 Zrotation Yrotation Xrotation
				JOINT RightFoot
				{
					OFFSET -2.568260 -7.056230 0.000000
					CHANNELS 3 Zrotation Yrotation Xrotation
					JOINT RightToeBase
					{
						OFFSET -0.164730 -0.452590 2.363150
						CHANNELS 3 Zrotation Yrotation Xrotation
						End Site
						{
							OFFSET 0.000000 0.000000 0.000000
						}
					}
				}
			}
		}
	}
	JOINT LowerBack
	{
		OFFSET 0.000000 0.000000 0.000000
		CHANNELS 3 Zrotation Yrotation Xrotation
		JOINT Spine
		{
			OFFSET 0.028270 2.035590 -0.193380
			CHANNELS 3 Zrotation Yrotation Xrotation
			JOINT Spine1
			{
				OFFSET 0.056720 2.048850 -0.042750
				CHANNELS 3 Zrotation Yrotation Xrotation
				JOINT Neck
				{
					OFFSET 0.000000 0.000000 0.000000
					CHANNELS 3 Zrotation Yrotation Xrotation
					JOINT Neck1
					{
						OFFSET -0.054170 1.746240 0.172020
						CHANNELS 3 Zrotation Yrotation Xrotation
						JOINT Head
						{
							OFFSET 0.104070 1.761360 -0.123970
							CHANNELS 3 Zrotation Yrotation Xrotation
							End Site
							{
								OFFSET 0.000000 0.000000 0.000000
							}
						}
					}
				}
				JOINT LeftShoulder
				{
					OFFSET 0.000000 0.000000 0.000000
					CHANNELS 3 Zrotation Yrotation Xrotation
					JOINT LeftArm
					{
						OFFSET 3.362410 1.200890 -0.311210
						CHANNELS 3 Zrotation Yrotation Xrotation
						JOINT LeftForeArm
						{
							OFFSET 4.983000 -0.000000 -0.000000
							CHANNELS 3 Zrotation Yrotation Xrotation
							JOINT LeftHand
							{
								OFFSET 3.483560 -0.000000 -0.000000
								CHANNELS 3 Zrotation Yrotation Xrotation
								JOINT LeftFingerBase
								{
									OFFSET 0.000000 0.000000 0.000000
									CHANNELS 3 Zrotation Yrotation Xrotation
									JOINT LeftHandIndex1
									{
										OFFSET 0.715260 -0.000000 -0.000000
										CHANNELS 3 Zrotation Yrotation Xrotation
										End Site
										{
											OFFSET 0.000000 0.000000 0.000000
										}
									}
								}
								JOINT LThumb
								{
									OFFSET 0.000000 0.000000 0.000000
									CHANNELS 3 Zrotation Yrotation Xrotation
									End Site
									{
										OFFSET 0.000000 0.000000 0.000000
									}
								}
							}
						}
					}
				}
				JOINT RightShoulder
				{
					OFFSET 0.000000 0.000000 0.000000
					CHANNELS 3 Zrotation Yrotation Xrotation
					JOINT RightArm
					{
						OFFSET -3.136600 1.374050 -0.404650
						CHANNELS 3 Zrotation Yrotation Xrotation
						JOINT RightForeArm
						{
							OFFSET -5.241900 -0.000000 -0.000000
							CHANNELS 3 Zrotation Yrotation Xrotation
							JOINT RightHand
							{
								OFFSET -3.444170 -0.000000 -0.000000
								CHANNELS 3 Zrotation Yrotation Xrotation
								JOINT RightFingerBase
								{
									OFFSET 0.000000 0.000000 0.000000
									CHANNELS 3 Zrotation Yrotation Xrotation
									JOINT RightHandIndex1
									{
										OFFSET -0.622530 -0.000000 -0.000000
										CHANNELS 3 Zrotation Yrotation Xrotation
										End Site
										{
											OFFSET 0.000000 0.000000 0.000000
										}
									}
								}
								JOINT RThumb
								{
									OFFSET 0.000000 0.000000 0.000000
									CHANNELS 3 Zrotation Yrotation Xrotation
									End Site
									{
										OFFSET 0.000000 0.000000 0.000000
									}
								}
							}
						}
					}
				}
			}
		}
	}
}
MOTION
Frames: 11
Frame Time: 0.008333
4.931935 17.369598 0.699864 0.851067 -70.969364 9.659982 -10.517854 1.775714 3.070806 -5.327374 5.100160 -13.001966 -2.602340 -1.611280 -3.705982 -0.252863 -0.413422 5.220698 0.319400 0.000000 -32.896000 9.837588 -2.824232 1.446129 8.145105 -10.214789 -6.924325 1.779515 1.648038 -3.744905 -2.392882 -16.184081 -3.652106 -3.019000 0.000000 -23.194000 -4.314365 2.044892 -5.214781 -1.807559 2.322275 -5.072902 -4.537178 2.370482 -5.271495 6.462334 8.148164 1.903737 -1.913845 -0.280496 2.599752 0.000000 0.000000 0.000000 7.239286 3.705408 -5.957111 -72.542097 -77.964176 4.208427 174.006603 -57.267572 179.536057 25.178162 -13.259043 -3.294799 -0.236565 1.245694 -0.000000 0.000000 0.000000 0.000000 0.000000 0.000000 0.000000 3.749826 12.678086 2.073458 66.132022 37.652022 10.407793 0.135137 37.997916 0.031934 5.277468 -8.991992 -0.415239 -0.104847 -0.163336 -0.000000 0.000000 0.000000 0.000000 0.000000 0.000000 0.000000 
4.931550 17.362472 0.704238 0.772833 -70.817915 9.681374 -10.519389 1.785021 3.085184 -5.257254 4.915422 -12.934382 -2.587616 -1.596903 -3.654806 -0.251668 -0.479510 5.082022 0.301500 0.000000 -33.066700 9.826631 -2.790938 1.361739 8.171004 -10.366380 -6.857115 1.778058 1.642686 -3.579841 -2.367856 -16.280620 -3.851004 -3.023999 -0.000000 -23.250000 -4.157263 1.934728 -5.140518 -1.850105 2.187381 -5.063364 -4.899295 2.237733 -5.319065 7.249999 7.465987 1.886079 -2.192624 -0.295431 2.584755 0.000000 0.000000 0.000000 7.779529 3.661472 -5.803078 -70.832686 -77.720280 2.697613 173.995157 -56.889215 179.526297 25.941113 -13.196729 -3.387400 -0.269394 1.251553 -0.000000 0.000000 0.000000 0.000000 0.000000 0.000000 0.000000 5.692188 11.835778 1.829580 67.015143 36.082232 11.233415 -0.007389 41.243755 0.029334 4.281708 -6.105392 -0.225769 -0.116642 -0.216533 -0.000000 0.000000 0.000000 0.000000 0.000000 0.000000 0.000000 
4.930773 17.356905 0.709725 0.720456 -70.748884 9.702892 -10.525204 1.798445 3.093658 -5.217887 4.825746 -12.899625 -2.580306 -1.584940 -3.622635 -0.253816 -0.569207 4.974457 0.279900 0.000001 -33.213000 9.815554 -2.760449 1.296872 8.183088 -10.497816 -6.830855 1.781436 1.640631 -3.441480 -2.336144 -16.312303 -3.993217 -3.027500 -0.000000 -23.349100 -3.980508 1.823246 -5.090774 -1.870743 2.052850 -5.045041 -5.187877 2.105995 -5.318988 7.850052 6.676325 1.821150 -2.409176 -0.306504 2.560461 0.000000 0.000000 0.000000 8.258084 3.662899 -5.704850 -69.400090 -77.407068 1.397145 173.966514 -56.485291 179.517038 26.689300 -13.140768 -3.478516 -0.300634 1.255861 -0.000000 0.000000 0.000000 0.000000 0.000000 0.000000 0.000000 7.130289 10.881529 1.582279 68.093654 34.839076 12.094154 -0.107625 44.165291 0.025768 3.579666 -4.067673 -0.122924 -0.126623 -0.254301 -0.000000 0.000000 0.000000 0.000000 0.000000 0.000000 0.000000 
4.929612 17.353097 0.716183 0.698378 -70.758025 9.716494 -10.534434 1.816464 3.097550 -5.209754 4.821037 -12.890617 -2.579645 -1.575207 -3.612678 -0.258520 -0.673624 4.901964 0.256300 -0.000000 -33.325500 9.804958 -2.732344 1.251712 8.178962 -10.603848 -6.843327 1.788119 1.640866 -3.322621 -2.297826 -16.289642 -4.083609 -3.032399 0.000000 -23.481300 -3.791619 1.709764 -5.065964 -1.870990 1.918322 -5.021904 -5.403300 1.974751 -5.284772 8.279274 5.846730 1.732471 -2.562364 -0.313978 2.533313 0.000000 0.000000 0.000000 8.664394 3.701134 -5.650737 -68.283920 -77.042855 0.360661 173.929496 -56.079555 179.508859 27.367992 -13.099627 -3.562936 -0.328573 1.259096 -0.000000 0.000000 0.000000 0.000000 0.000000 0.000000 0.000000 8.084502 9.900237 1.326102 69.350540 33.794494 12.958783 -0.184575 46.873110 0.022591 3.085871 -2.773437 -0.069602 -0.135244 -0.279972 -0.000000 0.000000 0.000000 0.000000 0.000000 0.000000 0.000000 
4.928255 17.351092 0.723482 0.708748 -70.838753 9.714609 -10.546171 1.839553 3.098384 -5.231032 4.885634 -12.899178 -2.584300 -1.567128 -3.625857 -0.264633 -0.782279 4.864598 0.232800 -0.000000 -33.397500 9.795188 -2.705531 1.224589 8.156912 -10.681158 -6.888423 1.796464 1.642562 -3.215962 -2.253690 -16.225592 -4.129862 -3.041001 0.000000 -23.632400 -3.596692 1.591283 -5.064138 -1.854101 1.780673 -4.996474 -5.555191 1.840656 -5.226556 8.570942 5.021561 1.640821 -2.659348 -0.318472 2.508503 0.000000 0.000000 0.000000 8.994378 3.774467 -5.629113 -67.484401 -76.657257 -0.393910 173.894443 -55.699901 179.502158 27.931399 -13.082686 -3.637253 -0.351920 1.261949 -0.000000 0.000000 0.000000 0.000000 0.000000 0.000000 0.000000 8.628476 8.940130 1.057505 70.722790 32.877597 13.828305 -0.249737 49.463144 0.020071 2.706750 -2.012915 -0.042198 -0.142767 -0.297809 -0.000000 0.000000 0.000000 0.000000 0.000000 0.000000 0.000000 
4.926897 17.350715 0.731415 0.754186 -70.983292 9.689489 -10.559540 1.868065 3.097556 -5.278847 5.000847 -12.916383 -2.592693 -1.559980 -3.660363 -0.270845 -0.884498 4.857935 0.210800 -0.000001 -33.425000 9.786359 -2.678684 1.212720 8.116228 -10.727825 -6.957853 1.804876 1.645166 -3.115878 -2.204828 -16.133744 -4.141295 -3.054400 0.000000 -23.790501 -3.399423 1.464372 -5.081756 -1.823592 1.636101 -4.971528 -5.656847 1.699709 -5.157439 8.763761 4.255991 1.569036 -2.709892 -0.320743 2.491518 0.000000 0.000000 0.000000 9.247882 3.879146 -5.626946 -66.963418 -76.276265 -0.888615 173.871082 -55.373072 179.497122 28.348991 -13.095986 -3.699458 -0.369908 1.265083 -0.000000 0.000000 0.000000 0.000000 0.000000 0.000000 0.000000 8.850756 8.054268 0.774858 72.129102 32.021651 14.653263 -0.309687 52.055784 0.018144 2.393850 -1.588042 -0.027807 -0.149965 -0.311468 -0.000000 0.000000 0.000000 0.000000 0.000000 0.000000 0.000000 
4.925847 17.351655 0.739803 0.835071 -71.183022 9.633520 -10.573812 1.901947 3.096042 -5.348760 5.148250 -12.933112 -2.603100 -1.552979 -3.712156 -0.275884 -0.970620 4.874161 0.192100 -0.000000 -33.407700 9.778485 -2.650507 1.212454 8.056371 -10.744563 -7.041379 1.811995 1.648211 -3.017944 -2.152948 -16.025998 -4.128123 -3.072200 -0.000001 -23.945500 -3.201696 1.326467 -5.114106 -1.783224 1.481520 -4.949279 -5.723877 1.548728 -5.089865 8.896397 3.597818 1.536955 -2.725627 -0.321622 2.486928 0.000000 0.000000 0.000000 9.429576 4.008724 -5.632707 -66.658886 -75.921200 -1.172740 173.867302 -55.119563 179.493765 28.606184 -13.141950 -3.748445 -0.382314 1.269022 -0.000000 0.000000 0.000000 0.000000 0.000000 0.000000 0.000000 8.846321 7.284973 0.478611 73.483750 31.189692 15.375934 -0.365524 54.754280 0.016595 2.131225 -1.305794 -0.019126 -0.157827 -0.324140 -0.000000 0.000000 0.000000 0.000000 0.000000 0.000000 0.000000 
4.925493 17.353521 0.748549 0.947324 -71.429827 9.543448 -10.588460 1.940603 3.094360 -5.435433 5.311331 -12.941960 -2.613825 -1.545422 -3.775173 -0.278645 -1.032936 4.903176 0.177801 0.000000 -33.348400 9.771328 -2.620113 1.220226 7.978337 -10.732552 -7.128615 1.816961 1.651404 -2.920029 -2.099412 -15.911199 -4.099948 -3.093300 0.000000 -24.088100 -3.003874 1.176573 -5.156389 -1.736887 1.315300 -4.930381 -5.773122 1.386153 -5.030703 9.004551 3.064680 1.555274 -2.719624 -0.321933 2.496856 0.000000 0.000000 0.000000 9.549142 4.155819 -5.638654 -66.501675 -75.610225 -1.305186 173.888890 -54.955054 179.491980 28.704383 -13.220033 -3.784410 -0.389422 1.274110 -0.000000 0.000000 0.000000 0.000000 0.000000 0.000000 0.000000 8.712324 6.642818 0.170956 74.710412 30.395763 15.969367 -0.413151 57.618274 0.015096 1.918118 -0.981784 -0.011251 -0.167174 -0.338649 -0.000000 0.000000 0.000000 0.000000 0.000000 0.000000 0.000000 
4.925912 17.355841 0.757485 1.090123 -71.716418 9.416422 -10.602983 1.983351 3.092934 -5.533093 5.477035 -12.936902 -2.623599 -1.537025 -3.843320 -0.278330 -1.066192 4.933702 0.168900 0.000000 -33.253900 9.764869 -2.587289 1.233090 7.883615 -10.694870 -7.210123 1.819317 1.654742 -2.822320 -2.046191 -15.794704 -4.065624 -3.115200 0.000000 -24.212600 -2.805852 1.015750 -5.204802 -1.688111 1.137927 -4.914570 -5.819495 1.212640 -4.982464 9.115911 2.655174 1.627914 -2.703569 -0.322361 2.521732 0.000000 0.000000 0.000000 9.618110 4.312158 -5.639834 -66.421681 -75.356633 -1.348375 173.938099 -54.885052 179.491535 28.661502 -13.328429 -3.809147 -0.391989 1.280503 -0.000000 0.000000 0.000000 0.000000 0.000000 0.000000 0.000000 8.530532 6.119859 -0.145316 75.756144 29.681133 16.423098 -0.445564 60.665615 0.013311 1.769533 -0.461399 -0.001380 -0.178682 -0.357294 -0.000000 0.000000 0.000000 0.000000 0.000000 0.000000 0.000000 
4.927476 17.358127 0.766536 1.254530 -72.036975 9.255104 -10.617157 2.028916 3.091814 -5.636023 5.635466 -12.914772 -2.631208 -1.527611 -3.910604 -0.274289 -1.066301 4.954498 0.166000 0.000000 -33.130500 9.758630 -2.551920 1.248976 7.774929 -10.631956 -7.280612 1.818902 1.657983 -2.723425 -1.994122 -15.681035 -4.032386 -3.136700 -0.000000 -24.327800 -2.605246 0.846178 -5.256610 -1.638925 0.951047 -4.902984 -5.873401 1.030006 -4.952807 9.247079 2.384694 1.761125 -2.684465 -0.323364 2.562844 0.000000 0.000000 0.000000 9.657041 4.463157 -5.631239 -66.353930 -75.149785 -1.372714 174.012549 -54.904102 179.492193 28.503112 -13.452983 -3.821959 -0.390980 1.287906 -0.000000 0.000000 0.000000 0.000000 0.000000 0.000000 0.000000 8.347211 5.728758 -0.469498 76.608541 29.061037 16.676151 -0.456897 63.902704 0.011130 1.734898 0.354148 0.012786 -0.193524 -0.381693 -0.000000 0.000000 0.000000 0.000000 0.000000 0.000000 0.000000 
4.930110 17.359964 0.775706 1.435409 -72.387648 9.063433 -10.630807 2.076295 3.090752 -5.739528 5.783986 -12.873741 -2.636216 -1.517407 -3.971695 -0.266434 -1.033495 4.956866 0.169300 -0.000001 -32.991500 9.752655 -2.514998 1.266775 7.655019 -10.548642 -7.334582 1.816463 1.661444 -2.627576 -1.944149 -15.565863 -4.004946 -3.153800 0.000000 -24.427500 -2.402025 0.672210 -5.310303 -1.591438 0.758709 -4.892198 -5.942015 0.842558 -4.929269 9.404519 2.192565 1.939060 -2.669485 -0.325143 2.615655 0.000000 0.000000 0.000000 9.673457 4.606903 -5.615590 -66.250864 -75.002567 -1.420148 174.108789 -55.010452 179.493591 28.268654 -13.593874 -3.828047 -0.387593 1.296159 -0.000000 0.000000 0.000000 0.000000 0.000000 0.000000 0.000000 8.202858 5.403815 -0.797006 77.266868 28.636413 16.808904 -0.439855 67.239383 0.008098 1.809179 1.525252 0.034548 -0.211064 -0.412674 -0.000000 0.000000 0.000000 0.000000 0.000000 0.000000 0.000000 
